<svg xmlns="http://www.w3.org/2000/svg" id="Ebene_1" viewBox="0 0 459.29999 227.10001" width="459.3" height="227.1"><style id="style3">.st0{fill:#fff}</style><g id="g5" transform="translate(-452.9 -271)"><path d="M807.7 413c0-.5-.1-1-.3-1.4l-28.7-107c0-.1 0-.1-.1-.2-.1-.2-.1-.4-.2-.6v-.1c-.1-.2-.1-.3-.2-.5 0 0 0-.1-.1-.1-.1-.1-.1-.3-.2-.4 0-.1-.1-.1-.1-.2-.1-.1-.2-.2-.2-.3l-.1-.1-.3-.3-.1-.1-.3-.3-.1-.1c-.1-.1-.2-.2-.4-.3l-.1-.1c-.1-.1-.2-.2-.4-.2l-.1-.1c-.1-.1-.2-.1-.4-.2-.1 0-.1-.1-.2-.1s-.2-.1-.3-.1c-.1 0-.2-.1-.3-.1-.1 0-.1 0-.2-.1l-107.4-28.8h-.2c-.1 0-.2 0-.3-.1-.1 0-.2 0-.4-.1h-1.3c-.2 0-.3 0-.5.1h-.1c-.2 0-.3.1-.4.1h-.1c-.1 0-.3.1-.4.1 0 0-.1 0-.1.1-.1.1-.3.1-.4.2 0 0-.1 0-.1.1-.1.1-.3.2-.4.2 0 0-.1 0-.1.1-.1.1-.3.2-.4.3l-.6.6-78.5 78.5c-.5.5-.9 1.1-1.2 1.8-.1.2-.1.3-.2.5v.1c-.1.2-.1.3-.1.5v.1c0 .1-.1.3-.1.4v2.1c0 .1 0 .2.1.4v.2l28.7 107.2c.2.7.4 1.4.8 1.9.1.2.2.3.3.5.1.1.2.3.4.4l.4.4c.1.1.3.2.4.3.1.1.3.2.4.3h.1c.1.1.3.1.4.2.1 0 .1 0 .2.1s.2.1.4.1c.1 0 .2.1.3.1.1 0 .1 0 .2.1L721.3 498h.2c.1 0 .2 0 .3.1h2.1c.1 0 .2 0 .3-.1.1 0 .1 0 .2-.1.1 0 .3-.1.4-.1.1 0 .1 0 .2-.1s.3-.1.4-.2h.1c.1-.1.3-.1.4-.2 0 0 .1 0 .1-.1.1-.1.3-.2.4-.3 0 0 .1 0 .1-.1.1-.1.2-.2.4-.3l.1-.1c.1-.1.2-.1.2-.2l78.7-78.7c1.3-1.1 1.9-2.8 1.8-4.5z" id="path7"/><path d="M807.7 413c0-.5-.1-1-.3-1.4l-28.7-107c0-.1 0-.1-.1-.2-.1-.2-.1-.4-.2-.6v-.1c-.1-.2-.1-.3-.2-.5 0 0 0-.1-.1-.1-.1-.1-.1-.3-.2-.4 0-.1-.1-.1-.1-.2-.1-.1-.2-.2-.2-.3l-.1-.1-.3-.3-.1-.1-.3-.3-.1-.1c-.1-.1-.2-.2-.4-.3l-.1-.1c-.1-.1-.2-.2-.4-.2l-.1-.1c-.1-.1-.2-.1-.4-.2-.1 0-.1-.1-.2-.1s-.2-.1-.3-.1c-.1 0-.2-.1-.3-.1-.1 0-.1 0-.2-.1l-107.4-28.8h-.2c-.1 0-.2 0-.3-.1-.1 0-.2 0-.4-.1h-1.3c-.2 0-.3 0-.5.1h-.1c-.2 0-.3.1-.4.1h-.1c-.1 0-.3.1-.4.1 0 0-.1 0-.1.1-.1.1-.3.1-.4.2 0 0-.1 0-.1.1-.1.1-.3.2-.4.2 0 0-.1 0-.1.1-.1.1-.3.2-.4.3l-.6.6-78.5 78.5c-.5.5-.9 1.1-1.2 1.8-.1.2-.1.3-.2.5v.1c-.1.2-.1.3-.1.5v.1c0 .1-.1.3-.1.4v2.1c0 .1 0 .2.1.4v.2l28.7 107.2c.2.7.4 1.4.8 1.9.1.2.2.3.3.5.1.1.2.3.4.4l.4.4c.1.1.3.2.4.3.1.1.3.2.4.3h.1c.1.1.3.1.4.2.1 0 .1 0 .2.1s.2.1.4.1c.1 0 .2.1.3.1.1 0 .1 0 .2.1L721.3 498h.2c.1 0 .2 0 .3.1h2.1c.1 0 .2 0 .3-.1.1 0 .1 0 .2-.1.1 0 .3-.1.4-.1.1 0 .1 0 .2-.1s.3-.1.4-.2h.1c.1-.1.3-.1.4-.2 0 0 .1 0 .1-.1.1-.1.3-.2.4-.3 0 0 .1 0 .1-.1.1-.1.2-.2.4-.3l.1-.1c.1-.1.2-.1.2-.2l78.7-78.7c1.3-1.1 1.9-2.8 1.8-4.5z" id="path9"/><path d="M483.9 426.5c.9 0 1.6-.6 1.6-1.6v-11.6c0-.9-.6-1.6-1.6-1.6H482c-4.2 0-6.1-2-6.1-6.4v-42c0-.6.3-.9.9-.9h7c.9 0 1.6-.6 1.6-1.6v-9.1c0-.9-.6-1.6-1.6-1.6h-7c-.6 0-.9-.3-.9-.9v-20.6c0-.9-.6-1.6-1.6-1.6h-12.8c-.9 0-1.6.6-1.6 1.6v20.6c0 .6-.3.9-.9.9h-4.5c-.9 0-1.6.6-1.6 1.6v9.1c0 .9.6 1.6 1.6 1.6h4.5c.6 0 .9.3.9.9v42.3c0 15 6.1 20.8 19.2 20.8h4.8v.1zm63.1-.9c.9 0 1.6-.6 1.6-1.6v-51.7c0-16.4-6.2-23.4-17.5-23.4-7.2 0-11.7 3.7-14.4 8.9h-.2v-36.9c0-.9-.6-1.6-1.6-1.6h-12.8c-.9 0-1.6.6-1.6 1.6V424c0 .9.6 1.6 1.6 1.6H515c.9 0 1.6-.6 1.6-1.6v-49.5c0-7.3 2.8-10.9 8-10.9 5.3 0 8.1 3.6 8.1 10.9V424c0 .9.6 1.6 1.6 1.6H547zm31.2-89.7c.9 0 1.6-.6 1.6-1.6v-13.4c0-.9-.6-1.6-1.6-1.6h-12.8c-.9 0-1.6.6-1.6 1.6v13.4c0 .9.6 1.6 1.6 1.6h12.8zm0 89.7c.9 0 1.6-.6 1.6-1.6v-72.1c0-.9-.6-1.6-1.6-1.6h-12.8c-.9 0-1.6.6-1.6 1.6V424c0 .9.6 1.6 1.6 1.6h12.8z" id="path11"/><path class="st0" d="M660.1 348.9c-8.6 0-13.7 4.2-16.4 12.6-1.4 4.2-2 9.1-2 25.3 0 16.4.6 21.1 2 25.3 2.7 8.4 7.8 12.5 16.4 12.5 7.8 0 12-3.9 13.9-9.1h.2v15.8c0 6.1-3.4 9.2-8.3 9.2-3.9 0-6.6-2-8.3-5.8-.5-.9-1.2-1.1-2-.8l-11.9 4.2c-.6.3-.8.9-.6 1.7 2.5 8.7 10.6 15.1 22.3 15.1 14.8 0 24.7-8.9 24.7-25.6v-77.6c0-.9-.6-1.6-1.6-1.6h-12.8c-.9 0-1.6.6-1.6 1.6v6.4h-.1c-1.9-5.2-6.1-9.2-13.9-9.2zm13.2 20c.6 2.2.8 3.7.8 18 0 14.4-.2 15.9-.8 18-1.1 3.4-3.4 5.5-7.5 5.5s-6.4-2-7.5-5.5c-.6-2-.8-3.6-.8-18 0-14.2.2-15.8.8-18 1.1-3.3 3.4-5.3 7.5-5.3s6.5 2 7.5 5.3zm49.1 58.1c7.8 0 12-3.7 14.1-9.1h.2v6.1c0 .9.6 1.6 1.6 1.6H751c.9 0 1.6-.6 1.6-1.6V320.9c0-.9-.6-1.6-1.6-1.6h-12.8c-.9 0-1.6.6-1.6 1.6v37h-.2c-2-5.2-6.2-9.1-14.1-9.1-8.6 0-13.7 4.1-16.4 12.5-1.4 4.2-2 8.9-2 26.5 0 17.8.6 22.3 2 26.5 2.7 8.6 7.9 12.7 16.5 12.7zm-1.7-20c-.6-2.2-.8-3.7-.8-19.1 0-15.3.2-16.9.8-19.1 1.1-3.3 3.6-5.3 7.7-5.3 3.9 0 6.4 2 7.5 5.3.6 2.2.8 3.7.8 19.1 0 15.3-.2 16.9-.8 19.1-1.1 3.3-3.6 5.3-7.5 5.3-4.1 0-6.6-2-7.7-5.3zm-126.2-56.7h-11l-1.2 1.2c-.5.5-.9 1.1-1.2 1.8-.1.2-.1.3-.2.5v.1c-.1.2-.1.3-.1.5v.1c0 .1-.1.3-.1.4v2.1c0 .1 0 .2.1.4v.2l15.3 57.3v-40.2c0-7.3 2.8-10.9 8-10.9 5.3 0 8.1 3.6 8.1 10.9V424c0 .9.6 1.6 1.6 1.6h12.8c.9 0 1.6-.6 1.6-1.6v-51.7c0-16.4-6.2-23.4-17.5-23.4-7.2 0-11.7 3.7-14.4 8.9h-.3v-5.9c0-1-.6-1.6-1.5-1.6zm211.4 67.4c1.3-1.3 1.9-3 1.8-4.7 0-.5-.1-1-.3-1.4l-7.9-29.4v19.2c0 7.2-2.8 10.9-8 10.9s-7.8-3.7-7.8-10.9v-49.5c0-.9-.6-1.6-1.6-1.6h-12.8c-.9 0-1.6.6-1.6 1.6v51.7c0 16.6 6.2 23.4 17.3 23.4 7.2 0 11.6-3.7 14.2-8.9h.2v6l6.5-6.4z" id="path13" fill="#fff"/><path d="M829 427c14.8 0 23.3-9.8 23.3-23 0-11.2-4.4-18.4-16.2-23l-6.1-2.3c-6.2-2.3-8.1-5.5-8.1-8.9 0-4.4 2.7-7.8 7.3-7.8 4.7 0 7 3 8.1 6.9.3.9.9 1.4 1.9 1.2l10.6-2c.8-.2 1.3-.9 1.1-2-1.4-9.1-8.4-17.2-21.7-17.2-13.6 0-22.3 9.5-22.3 22 0 11.1 6.4 18.3 16.2 22l6.1 2.3c6.2 2.3 8.1 5.2 8.1 9.8 0 5.3-3.3 8.6-8.1 8.6s-8.4-2.8-9.2-8.7c-.2-.9-.9-1.4-1.9-1.2l-11.2 2.2c-.9.2-1.4.9-1.2 1.9 1.2 11.7 9.6 19.2 23.3 19.2zm64.5-.5c.9 0 1.6-.6 1.6-1.6v-11.6c0-.9-.6-1.6-1.6-1.6h-1.9c-4.2 0-6.1-2-6.1-6.4v-42c0-.6.3-.9.9-.9h7c.9 0 1.6-.6 1.6-1.6v-9.1c0-.9-.6-1.6-1.6-1.6h-7c-.6 0-.9-.3-.9-.9v-20.6c0-.9-.6-1.6-1.6-1.6h-12.8c-.9 0-1.6.6-1.6 1.6v20.6c0 .6-.3.9-.9.9h-4.5c-.9 0-1.6.6-1.6 1.6v9.1c0 .9.6 1.6 1.6 1.6h4.5c.6 0 .9.3.9.9v42.3c0 15 6.1 20.8 19.2 20.8h4.8v.1z" id="path15"/><path d="M903.6 327.2c3.9 0 6.8-1.9 8-5.5.3-1 .6-2.2.6-4 0-1.8-.2-3-.6-4-1.2-3.6-4.1-5.5-8-5.5-3.9 0-6.8 1.9-8 5.5-.3 1-.6 2.2-.6 4 0 1.8.3 3 .6 4 1.2 3.6 4.1 5.5 8 5.5zm0-1.7c-3.1 0-5.3-1.6-6.2-4.3-.3-.8-.5-1.9-.5-3.5s.2-2.7.5-3.5c.9-2.7 3.2-4.3 6.2-4.3s5.3 1.6 6.2 4.3c.2.8.5 1.9.5 3.5 0 1.7-.2 2.7-.5 3.5-.8 2.7-3.1 4.3-6.2 4.3zm-1-2.5c.2 0 .4-.1.4-.3V319c0-.2.1-.3.2-.3h.5l1.2 4c.1.2.2.3.4.3h1.4c.2 0 .4-.1.2-.3l-1.5-4.4c.8-.6 1.3-1.4 1.3-2.8 0-2.2-1.1-3.1-3.1-3.1h-2.4c-.2 0-.4.1-.4.4v9.9c0 .2.2.3.4.3h1.4zm.9-6.1h-.4c-.1 0-.2-.1-.2-.3v-2.3c0-.2.1-.2.2-.2h.4c.9 0 1.2.2 1.2 1.3 0 1.2-.3 1.5-1.2 1.5z" id="path17"/></g></svg>